<?xml version="1.0" standalone="no"?>
<!DOCTYPE svg PUBLIC "-//W3C//DTD SVG 20010904//EN"
 "http://www.w3.org/TR/2001/REC-SVG-20010904/DTD/svg10.dtd">
<svg version="1.0" xmlns="http://www.w3.org/2000/svg"
 width="512.000000pt" height="512.000000pt" viewBox="0 0 512.000000 512.000000"
 preserveAspectRatio="xMidYMid meet">

<g transform="translate(0.000000,512.000000) scale(0.100000,-0.100000)"
fill="currentColor" stroke="none">
<path d="M4540 5060 c-21 -21 -21 -22 -49 -160 -11 -52 -24 -107 -29 -121 -19
-49 -65 -76 -169 -99 -160 -36 -172 -40 -193 -62 -33 -36 -23 -105 19 -127 10
-6 72 -22 137 -37 134 -30 167 -43 191 -80 9 -14 29 -85 45 -157 23 -109 33
-136 54 -154 29 -27 54 -29 93 -8 35 18 37 22 67 170 36 176 49 188 244 232
139 30 170 49 170 103 0 58 -39 83 -170 109 -127 26 -179 49 -203 90 -9 16
-28 84 -43 152 -30 144 -46 169 -106 169 -25 0 -45 -7 -58 -20z m109 -449 l50
-49 -50 -50 -50 -50 -54 54 c-29 30 -50 54 -45 54 5 0 28 20 52 45 24 24 44
45 45 45 1 0 24 -22 52 -49z"/>
<path d="M705 5039 c-34 -17 -43 -41 -80 -218 -40 -194 -53 -233 -98 -279 -55
-57 -91 -72 -279 -113 -203 -44 -221 -50 -237 -86 -17 -38 -13 -62 16 -92 24
-23 54 -32 203 -65 196 -42 240 -59 288 -107 52 -51 67 -91 107 -284 38 -188
51 -217 101 -229 24 -6 77 14 89 33 3 6 23 93 44 194 43 204 61 249 121 299
47 41 71 49 294 98 187 41 206 52 206 117 0 61 -25 74 -220 117 -322 70 -336
84 -401 395 -26 124 -44 191 -56 203 -23 22 -72 31 -98 17z m140 -625 c33 -33
82 -71 109 -83 l48 -24 -57 -30 c-64 -35 -152 -124 -182 -186 l-21 -42 -24 47
c-32 66 -113 146 -181 180 l-57 29 57 30 c71 37 146 111 179 178 l27 51 20
-44 c12 -25 48 -72 82 -106z"/>
<path d="M2341 3998 c-117 -13 -287 -58 -417 -109 -341 -136 -632 -407 -799
-744 -78 -158 -119 -281 -147 -440 -29 -169 -22 -440 15 -595 22 -90 55 -196
82 -262 7 -17 -4 -18 -134 -18 -165 0 -303 13 -418 40 -92 22 -177 61 -187 85
-21 57 122 180 356 304 107 58 115 65 124 109 5 26 1 36 -24 62 -19 18 -41 30
-57 30 -15 0 -71 -23 -124 -50 -233 -119 -404 -266 -435 -371 -19 -63 -20 -80
-4 -132 49 -162 322 -247 792 -247 l203 0 51 -79 c308 -467 886 -746 1432
-692 491 50 901 293 1169 694 104 154 192 368 230 554 11 53 21 96 23 98 2 1
80 33 173 70 419 167 692 338 780 488 55 94 41 202 -35 271 -106 96 -270 138
-604 156 -199 11 -239 8 -270 -19 -46 -41 -35 -117 20 -139 16 -6 119 -13 229
-16 267 -7 456 -46 511 -107 14 -16 15 -23 4 -48 -28 -68 -179 -182 -367 -279
-104 -53 -364 -167 -407 -178 -26 -6 -26 -5 -26 48 0 129 -35 321 -84 467
-236 694 -925 1130 -1655 1049z m425 -183 c303 -53 611 -230 808 -465 209
-250 318 -532 333 -862 l6 -126 -184 -60 c-641 -209 -1474 -381 -2164 -446
-88 -8 -191 -16 -230 -18 l-69 -3 -34 84 c-19 46 -48 136 -65 200 -29 110 -30
126 -31 316 -1 215 8 280 60 442 111 341 364 638 683 802 156 80 350 136 536
155 67 7 263 -4 351 -19z m1089 -1751 c-128 -440 -465 -792 -897 -937 -462
-155 -963 -56 -1347 266 -72 60 -241 248 -241 267 0 4 64 12 143 19 499 43
1076 142 1635 281 221 55 535 144 669 189 32 11 59 16 61 12 1 -4 -9 -47 -23
-97z"/>
<path d="M2683 3619 c-58 -11 -112 -41 -154 -86 -53 -55 -72 -99 -77 -179 -4
-61 -1 -80 20 -125 33 -73 66 -109 130 -144 46 -26 63 -30 133 -30 67 0 88 5
131 27 211 111 204 418 -11 514 -61 27 -116 34 -172 23z"/>
<path d="M1946 3180 c-59 -18 -106 -83 -106 -146 0 -76 76 -154 150 -154 75 0
150 78 150 157 0 94 -104 171 -194 143z"/>
<path d="M3164 2950 c-38 -15 -64 -59 -64 -107 0 -113 152 -145 205 -43 19 37
19 54 -1 95 -24 51 -88 76 -140 55z"/>
<path d="M534 1046 c-37 -16 -42 -30 -75 -190 -22 -108 -44 -152 -89 -176 -9
-5 -71 -21 -136 -36 -161 -36 -183 -49 -184 -110 0 -55 33 -76 161 -103 201
-42 215 -55 248 -217 34 -164 38 -174 79 -191 32 -13 39 -13 67 0 38 18 48 41
75 176 21 111 40 153 80 182 14 10 84 31 155 46 147 31 175 48 175 106 0 62
-22 76 -171 108 -73 16 -145 38 -159 48 -40 29 -59 71 -80 182 -28 138 -37
159 -76 175 -39 16 -31 16 -70 0z m91 -561 l-50 -50 -49 48 c-27 26 -54 47
-59 47 -4 0 6 12 25 28 18 15 43 39 55 53 l22 26 53 -51 53 -51 -50 -50z"/>
</g>
</svg>
